<?xml version="1.0" encoding="UTF-8" standalone="no"?>
<svg
   xmlns:dc="http://purl.org/dc/elements/1.1/"
   xmlns:cc="http://creativecommons.org/ns#"
   xmlns:rdf="http://www.w3.org/1999/02/22-rdf-syntax-ns#"
   xmlns:svg="http://www.w3.org/2000/svg"
   xmlns="http://www.w3.org/2000/svg"
   viewBox="0 0 325 80"
   height="80"
   width="325"
   id="svg124"
   version="1.1">
  <metadata
     id="metadata130">
    <rdf:RDF>
      <cc:Work
         rdf:about="">
        <dc:format>image/svg+xml</dc:format>
        <dc:type
           rdf:resource="http://purl.org/dc/dcmitype/StillImage" />
        <dc:title></dc:title>
      </cc:Work>
    </rdf:RDF>
  </metadata>
  <defs
     id="defs128" />
  <path
     id="path3823"
     d="m -1106.0099,539.4 0.3404,14.3 -18.7234,18.5 18.383,17.5 0.1702,14.5 -33.1915,-33 z"
     style="fill:#000000;stroke:#000000;stroke-width:1px;stroke-linecap:butt;stroke-linejoin:miter;stroke-opacity:1" />
  <path
     style="fill:#000000;stroke:#000000;stroke-width:1px;stroke-linecap:butt;stroke-linejoin:miter;stroke-opacity:1"
     d="m -1106.0099,539.4 0.3404,14.3 -18.7234,18.5 18.383,17.5 0.1702,14.5 -33.1915,-33 z"
     id="path3831" />
  <path
     id="path3874"
     d="m 286.03361,15.394493 -2.31445,9.12 10.89648,9.33 8.11914,-3.58 z m -240.93554,0.96 -18.636718,12.36 7.529296,4.7 12.107422,-7.69 z m 140.53125,5.34 c -9.54627,0 -18.23438,7.83 -18.23438,17.5 0,9.63 8.7289,17.38 18.23438,17.38 7.30249,0 11.05664,-3.1 11.05664,-3.1 l -3.26368,-6.53 c 0,0 -2.69295,2.08 -6.60937,2.08 -7.71045,0 -11.0957,-5.38 -11.0957,-9.91 0,-4.49 3.38525,-9.88 11.0957,-9.88 3.91642,0 6.60937,2.08 6.60937,2.08 l 3.26368,-6.52 c 0,0 -3.75415,-3.1 -11.05664,-3.1 z m 25.68164,0 c -9.2607,0 -16.97071,7.58 -16.97071,17.42 0,9.83 7.01648,17.46 16.97071,17.46 9.66866,0 16.92968,-7.63 16.92968,-17.46 0,-9.84 -7.58739,-17.42 -16.92968,-17.42 z m 28.90625,0 c -5.42587,0 -10.97461,4 -10.97461,10.28 0,3.51 2.36548,6.65 6.40429,8.65 3.99801,2 7.58985,3.1 7.58985,5.54 0,3.14 -3.18283,3.31 -4.85547,3.31 -3.75323,0 -8.24023,-3.79 -8.24023,-3.79 l -3.83594,6.44 c 0,0 4.77284,4.45 12.64648,4.45 5.84857,0 11.32954,-2.25 12.46289,-8.41 v 7.79 h 7.66992 v -12.48 h 4.60938 c 6.56816,0 11.50391,-3.87 11.50391,-10.81 0,-6.97 -4.93575,-10.36 -11.50391,-10.36 h -12.2793 v 21.68 c -0.90004,-3.51 -4.40821,-6.07 -7.64843,-7.44 -3.83484,-1.64 -7.01758,-2.98 -7.01758,-4.86 0,-1.83 1.38709,-3.02 3.99804,-3.02 3.46766,0 6.81446,2.33 6.81446,2.33 l 3.09961,-6.12 c 0,0 -4.32395,-3.18 -10.44336,-3.18 z m -191.371093,0.61 14.115235,33.65 h 6.037107 l 12.44531,-29.67 -2.66211,29.67 h 7.669923 l 1.5918,-19.94 h 0.20312 l 6.89454,19.74 h 4.568346 l 6.894542,-19.74 h 0.20507 l 1.58985,19.94 h 7.66992 3.91406 l 2.48828,-6.73 h 12.8086 l 2.48828,6.73 h 8.24219 5.13086 v -13.29 l 10.28124,13.29 h 9.75 l -11.58593,-13.91 c 4.1204,-1.3 6.89453,-4.69 6.89453,-9.75 0,-6.6 -4.73282,-9.99 -10.97461,-9.99 h -12.03516 v 27.37 l -11.04687,-27.37 h -7.09766 l -10.04492,24.88 -2.23047,-24.88 h -8.16015 l -7.464848,19.42 -7.4668,-19.42 h -6.845703 -1.3125 -7.33593 l -8.48438,22.11 -8.486324,-22.11 z m 102.294923,6.12 h 0.89843 c 2.89651,0 6.36328,0.2 6.36328,4.4 0,4.21 -3.46677,4.41 -6.36328,4.41 h -0.89843 z m 107.94335,0 h 2.16211 c 3.0189,0 5.87305,1.02 5.87305,4.49 0,3.42 -2.85415,4.44 -5.87305,4.44 h -2.16211 z m -47.77343,0.65 c 5.95622,0 8.64843,5.02 8.64843,10.04 0,5.01 -2.52903,10.03 -8.64843,10.03 -6.28259,0 -8.68946,-5.02 -8.68946,-10.03 0,-5.02 2.77404,-10.04 8.68946,-10.04 z m -82.47657,3.63 h 0.082 l 3.7539,9.79 h -7.58984 z m -117.269523,2.08 v 12.55 l 31.011719,20.35 0.708984,-12.78 z m 305.058593,3.59 -34.25,15.44 -1.10547,12.75 33.58008,-15.77 z"
     style="fill:#ffffff;stroke:none;stroke-width:2.78154683px;stroke-linecap:butt;stroke-linejoin:miter;stroke-opacity:1" />
  <g
     transform="translate(0,-208)"
     id="text3911"
     style="font-style:normal;font-variant:normal;font-weight:normal;font-stretch:normal;font-size:40px;line-height:1.25;font-family:league;-inkscape-font-specification:league;letter-spacing:-0.34px;word-spacing:0px;fill:#f24747;fill-opacity:1;stroke:#f24747;stroke-opacity:1"
     aria-label="vmarcosp" />
</svg>
